<svg width="450" height="994" viewBox="0 0 450 994" fill="none" xmlns="http://www.w3.org/2000/svg">
<g clip-path="url(#clip0_86_1316)">
<rect width="450" height="994" rx="2" fill="#EEE2D4"/>
<path d="M0 73.4557C0 49.699 20.5841 31.178 44.2089 33.6777L432.104 74.7208C442.279 75.7973 450 84.3787 450 94.6097V167.5V255C450 257.761 447.761 260 445 260H10C4.47715 260 0 255.523 0 250V73.4557Z" fill="#FF3C00"/>
<rect y="256" width="450" height="738" fill="#FF3C00"/>
<rect x="92" y="212" width="65" height="65" rx="25" fill="white"/>
<path d="M133 234.5C133 239.194 129.194 241.5 124.5 241.5C119.806 241.5 116 239.194 116 234.5C116 229.806 119.806 226 124.5 226C129.194 226 133 229.806 133 234.5Z" fill="#FF3C00"/>
<path d="M111 251.5C111 247.358 114.358 244 118.5 244H129.5C133.642 244 137 247.358 137 251.5V258C137 258.552 136.552 259 136 259H112C111.448 259 111 258.552 111 258V251.5Z" fill="#FF3C00"/>
<rect x="171" y="212" width="65" height="65" rx="25" fill="white"/>
<path d="M212 235.5C212 240.194 208.194 242.5 203.5 242.5C198.806 242.5 195 240.194 195 235.5C195 230.806 198.806 227 203.5 227C208.194 227 212 230.806 212 235.5Z" fill="#FFE78F"/>
<path d="M190 252.5C190 248.358 193.358 245 197.5 245H208.5C212.642 245 216 248.358 216 252.5V259C216 259.552 215.552 260 215 260H191C190.448 260 190 259.552 190 259V252.5Z" fill="#FFE78F"/>
<rect x="250" y="212" width="65" height="65" rx="25" fill="white"/>
<path d="M269 251.5C269 247.358 272.358 244 276.5 244H287.5C291.642 244 295 247.358 295 251.5V258C295 258.552 294.552 259 294 259H270C269.448 259 269 258.552 269 258V251.5Z" fill="#4379FF"/>
<path d="M291 234.5C291 239.194 287.194 241.5 282.5 241.5C277.806 241.5 274 239.194 274 234.5C274 229.806 277.806 226 282.5 226C287.194 226 291 229.806 291 234.5Z" fill="#4379FF"/>
<rect x="329" y="212" width="65" height="65" rx="25" fill="white"/>
<path d="M371 234.5C371 239.194 367.194 241.5 362.5 241.5C357.806 241.5 354 239.194 354 234.5C354 229.806 357.806 226 362.5 226C367.194 226 371 229.806 371 234.5Z" fill="#FF3C00"/>
<path d="M349 251.5C349 247.358 352.358 244 356.5 244H367.5C371.642 244 375 247.358 375 251.5V258C375 258.552 374.552 259 374 259H350C349.448 259 349 258.552 349 258V251.5Z" fill="#FF3C00"/>
<rect x="408" y="212" width="65" height="65" rx="25" fill="white"/>
<path d="M450 233.5C450 238.194 446.194 240.5 441.5 240.5C436.806 240.5 433 238.194 433 233.5C433 228.806 436.806 225 441.5 225C446.194 225 450 228.806 450 233.5Z" fill="#FFD741"/>
<path d="M428 250.5C428 246.358 431.358 243 435.5 243H446.5C450.642 243 454 246.358 454 250.5V257C454 257.552 453.552 258 453 258H429C428.448 258 428 257.552 428 257V250.5Z" fill="#FFD741"/>
<g filter="url(#filter0_d_86_1316)">
<rect x="10" y="557" width="429" height="428" rx="20" fill="url(#paint0_linear_86_1316)"/>
</g>
<rect x="340" y="585" width="27" height="27" rx="10" fill="#FFFCFC"/>
<rect x="391" y="585" width="27" height="27" rx="10" fill="#FFFCFC"/>
<rect x="32" y="580" width="276" height="38" rx="10" fill="#FFFCFC"/>
<rect x="32" y="637" width="386" height="20" rx="10" fill="#1F285B"/>
<rect x="51" y="676" width="45" height="43" rx="15" fill="#FFFCFC"/>
<rect x="67.0776" y="685.882" width="13.7011" height="23.0588" rx="5" fill="#1F285B"/>
<rect x="152" y="677" width="45" height="43" rx="15" fill="#FFFCFC"/>
<rect x="168.124" y="686.706" width="13.7011" height="23.0588" rx="5" fill="#1F285B"/>
<rect x="102" y="677" width="45" height="43" rx="15" fill="#FFFCFC"/>
<rect x="117.601" y="686.706" width="13.7011" height="23.0588" rx="5" fill="#1F285B"/>
<rect x="203" y="676" width="45" height="43" rx="15" fill="#FFFCFC"/>
<rect x="218.647" y="685.882" width="13.7011" height="23.0588" rx="5" fill="#1F285B"/>
<rect x="304" y="677" width="45" height="43" rx="15" fill="#FFFCFC"/>
<rect x="319.693" y="686.706" width="13.7011" height="23.0588" rx="5" fill="#1F285B"/>
<rect x="354" y="676" width="45" height="43" rx="15" fill="#FFFCFC"/>
<rect x="370.078" y="685.882" width="13.7011" height="23.0588" rx="5" fill="#1F285B"/>
<rect x="253" y="677" width="45" height="43" rx="15" fill="#FFFCFC"/>
<rect x="269.17" y="686.706" width="13.7011" height="23.0588" rx="5" fill="#1F285B"/>
<rect x="53" y="752" width="45" height="43" rx="15" fill="#FFFCFC"/>
<rect x="69.0776" y="761.882" width="13.7011" height="23.0588" rx="5" fill="#1F285B"/>
<rect x="154" y="753" width="45" height="43" rx="15" fill="#FFFCFC"/>
<rect x="170.124" y="762.706" width="13.7011" height="23.0588" rx="5" fill="#1F285B"/>
<rect x="104" y="753" width="45" height="43" rx="15" fill="#FFFCFC"/>
<rect x="119.601" y="762.706" width="13.7011" height="23.0588" rx="5" fill="#1F285B"/>
<rect x="205" y="752" width="45" height="43" rx="15" fill="#FFFCFC"/>
<rect x="220.647" y="761.882" width="13.7011" height="23.0588" rx="5" fill="#1F285B"/>
<rect x="306" y="753" width="45" height="43" rx="15" fill="#FFFCFC"/>
<rect x="321.693" y="762.706" width="13.7011" height="23.0588" rx="5" fill="#1F285B"/>
<rect x="356" y="752" width="45" height="43" rx="15" fill="#FFFCFC"/>
<rect x="372.078" y="761.882" width="13.7011" height="23.0588" rx="5" fill="#1F285B"/>
<rect x="255" y="753" width="45" height="43" rx="15" fill="#FFFCFC"/>
<rect x="271.17" y="762.706" width="13.7011" height="23.0588" rx="5" fill="#1F285B"/>
<rect x="51" y="828" width="45" height="43" rx="15" fill="#FFFCFC"/>
<rect x="67.0776" y="837.882" width="13.7011" height="23.0588" rx="5" fill="#1F285B"/>
<rect x="152" y="829" width="45" height="43" rx="15" fill="#FFFCFC"/>
<rect x="168.124" y="838.706" width="13.7011" height="23.0588" rx="5" fill="#1F285B"/>
<rect x="102" y="829" width="45" height="43" rx="15" fill="#FFFCFC"/>
<rect x="117.601" y="838.706" width="13.7011" height="23.0588" rx="5" fill="#1F285B"/>
<rect x="203" y="828" width="45" height="43" rx="15" fill="#FFFCFC"/>
<rect x="218.647" y="837.882" width="13.7011" height="23.0588" rx="5" fill="#1F285B"/>
<rect x="304" y="829" width="45" height="43" rx="15" fill="#FFFCFC"/>
<rect x="319.693" y="838.706" width="13.7011" height="23.0588" rx="5" fill="#1F285B"/>
<rect x="354" y="828" width="45" height="43" rx="15" fill="#FFFCFC"/>
<rect x="370.078" y="837.882" width="13.7011" height="23.0588" rx="5" fill="#1F285B"/>
<rect x="253" y="829" width="45" height="43" rx="15" fill="#FFFCFC"/>
<rect x="269.17" y="838.706" width="13.7011" height="23.0588" rx="5" fill="#1F285B"/>
<rect x="53" y="904" width="45" height="43" rx="15" fill="#FFFCFC"/>
<rect x="69.0776" y="913.882" width="13.7011" height="23.0588" rx="5" fill="#1F285B"/>
<rect x="154" y="905" width="45" height="43" rx="15" fill="#FFFCFC"/>
<rect x="170.124" y="914.706" width="13.7011" height="23.0588" rx="5" fill="#1F285B"/>
<rect x="104" y="905" width="45" height="43" rx="15" fill="#FFFCFC"/>
<rect x="119.601" y="914.706" width="13.7011" height="23.0588" rx="5" fill="#1F285B"/>
<rect x="205" y="904" width="45" height="43" rx="15" fill="#FFFCFC"/>
<rect x="220.647" y="913.882" width="13.7011" height="23.0588" rx="5" fill="#1F285B"/>
<rect x="306" y="905" width="45" height="43" rx="15" fill="#FFFCFC"/>
<rect x="321.693" y="914.706" width="13.7011" height="23.0588" rx="5" fill="#1F285B"/>
<rect x="356" y="904" width="45" height="43" rx="15" fill="#FFFCFC"/>
<rect x="372.078" y="913.882" width="13.7011" height="23.0588" rx="5" fill="#1F285B"/>
<rect x="255" y="905" width="45" height="43" rx="15" fill="#FFFCFC"/>
<rect x="271.17" y="914.706" width="13.7011" height="23.0588" rx="5" fill="#1F285B"/>
<rect x="12" y="296" width="425" height="240" rx="30" fill="url(#paint1_radial_86_1316)" fill-opacity="0.2"/>
<rect x="14" y="212" width="65" height="65" rx="25" fill="white"/>
<path d="M55 234.5C55 239.194 51.1944 241.5 46.5 241.5C41.8056 241.5 38 239.194 38 234.5C38 229.806 41.8056 226 46.5 226C51.1944 226 55 229.806 55 234.5Z" fill="#B6C4FF"/>
<path d="M33 251.5C33 247.358 36.3579 244 40.5 244H51.5C55.6421 244 59 247.358 59 251.5V258C59 258.552 58.5523 259 58 259H34C33.4477 259 33 258.552 33 258V251.5Z" fill="#B6C4FF"/>
</g>
<rect x="0.5" y="0.5" width="449" height="993" rx="1.5" stroke="#EEE2D4"/>
<path d="M66.02 134.896C61.8754 134.538 58.0872 133.462 54.6554 131.667C51.2768 129.877 48.3737 127.538 45.946 124.653C43.5715 121.771 41.7893 118.539 40.5994 114.957C39.4673 111.326 39.0731 107.518 39.4168 103.533C39.7606 99.5481 40.7745 95.8616 42.4585 92.4738C44.1957 89.0905 46.4541 86.1805 49.2338 83.7437C52.0667 81.3115 55.3273 79.505 59.0158 78.3243C62.7088 77.0904 66.7073 76.6591 71.0113 77.0304C75.581 77.4246 79.4247 78.4788 82.5422 80.193C85.7129 81.9119 88.4186 84.3668 90.6593 87.5579L82.1774 93.7318C79.1323 89.9361 75.1124 87.8228 70.1176 87.3919C66.5575 87.0848 63.3757 87.6669 60.5722 89.1381C57.8219 90.6138 55.6079 92.698 53.9303 95.3904C52.2527 98.0829 51.2672 101.129 50.9739 104.53C50.6806 107.931 51.1298 111.101 52.3215 114.041C53.5179 116.928 55.3711 119.336 57.8812 121.266C60.396 123.142 63.4865 124.238 67.1529 124.555C69.8628 124.788 72.2929 124.543 74.4431 123.818C76.5934 123.094 78.57 121.899 80.373 120.235L87.9047 127.87C85.5593 130.237 82.5332 132.118 78.8264 133.511C75.1773 134.856 70.9085 135.317 66.02 134.896ZM109.045 138.607C104.794 138.24 101.08 136.929 97.902 134.675C94.724 132.42 92.3183 129.589 90.685 126.183C89.1094 122.728 88.4935 119.008 88.8373 115.023C89.181 111.038 90.4249 107.478 92.5688 104.344C94.7659 101.215 97.623 98.8113 101.14 97.134C104.657 95.4567 108.541 94.8014 112.792 95.1681C117.096 95.5393 120.811 96.8501 123.935 99.1003C127.113 101.355 129.49 104.21 131.066 107.665C132.695 111.124 133.337 114.846 132.993 118.832C132.65 122.817 131.379 126.374 129.182 129.504C127.043 132.585 124.214 134.964 120.697 136.641C117.233 138.323 113.349 138.978 109.045 138.607ZM109.891 128.803C112.176 129 114.214 128.641 116.006 127.725C117.803 126.756 119.231 125.407 120.29 123.678C121.402 121.954 122.05 120.029 122.233 117.904C122.421 115.725 122.115 113.691 121.314 111.802C120.567 109.917 119.389 108.37 117.78 107.161C116.176 105.899 114.231 105.169 111.947 104.972C109.662 104.775 107.621 105.161 105.824 106.13C104.032 107.046 102.58 108.366 101.468 110.09C100.409 111.819 99.7852 113.772 99.5973 115.951C99.414 118.076 99.696 120.081 100.444 121.966C101.244 123.855 102.446 125.431 104.051 126.693C105.659 127.903 107.606 128.606 109.891 128.803ZM143.106 140.501L133.769 97.9411L146.362 99.0273L149.674 123.001C149.8 124.029 149.921 125.11 150.037 126.244C150.211 127.329 150.334 128.384 150.406 129.407C150.909 127.309 151.544 125.223 152.311 123.148L160.39 100.237L172.744 101.303L177.179 125.293C177.58 127.469 177.848 129.633 177.984 131.786C178.23 130.79 178.506 129.77 178.81 128.726C179.172 127.633 179.503 126.591 179.802 125.599L187.569 102.582L199.286 103.592L182.799 143.925L171.162 142.921L166.422 118.744C165.963 116.617 165.664 114.503 165.524 112.404C165.277 113.399 165.002 114.419 164.698 115.464C164.393 116.508 164.065 117.524 163.712 118.51L155.46 141.567L143.106 140.501ZM216.459 147.872C212.208 147.505 208.494 146.195 205.316 143.94C202.138 141.685 199.732 138.855 198.099 135.448C196.523 131.993 195.907 128.273 196.251 124.288C196.595 120.303 197.838 116.743 199.982 113.609C202.179 110.48 205.037 108.077 208.554 106.399C212.071 104.722 215.955 104.067 220.206 104.433C224.51 104.805 228.224 106.115 231.349 108.366C234.527 110.62 236.904 113.475 238.479 116.93C240.108 120.389 240.751 124.112 240.407 128.097C240.063 132.082 238.793 135.639 236.596 138.769C234.456 141.85 231.628 144.229 228.111 145.906C224.647 147.588 220.763 148.243 216.459 147.872ZM217.305 138.068C219.589 138.266 221.628 137.906 223.42 136.99C225.216 136.021 226.644 134.672 227.703 132.943C228.816 131.219 229.464 129.294 229.647 127.169C229.835 124.99 229.528 122.956 228.728 121.067C227.98 119.183 226.802 117.636 225.194 116.426C223.59 115.164 221.645 114.434 219.36 114.237C217.075 114.04 215.035 114.426 213.238 115.395C211.446 116.311 209.994 117.631 208.882 119.355C207.822 121.084 207.199 123.038 207.011 125.216C206.828 127.342 207.11 129.347 207.857 131.231C208.658 133.12 209.86 134.696 211.464 135.959C213.073 137.168 215.02 137.871 217.305 138.068ZM243.389 149.151L246.964 107.705L257.405 108.606L256.724 116.496C257.672 113.58 259.275 111.443 261.533 110.086C263.796 108.675 266.725 108.232 270.32 108.756L269.447 118.878L267.932 118.748C264.85 118.482 262.162 119.24 259.867 121.023C257.572 122.806 256.275 125.424 255.977 128.878L254.149 150.079L243.389 149.151ZM270.242 151.467L275.261 93.2834L286.021 94.2116L283.133 127.687L300.119 112.29L315.423 113.61L294.231 131.214L311.927 155.063L297.66 153.832L282.7 132.709L281.002 152.396L270.242 151.467ZM329.228 157.599C324.977 157.233 321.316 155.926 318.244 153.681C315.173 151.435 312.873 148.614 311.346 145.217C309.877 141.771 309.314 138.056 309.658 134.07C310.002 130.085 311.246 126.526 313.389 123.392C315.538 120.204 318.291 117.765 321.649 116.074C325.06 114.388 328.837 113.723 332.982 114.081C337.127 114.438 340.682 115.735 343.647 117.972C346.666 120.213 348.907 123.083 350.372 126.582C351.895 130.032 352.484 133.75 352.14 137.735C352.09 138.319 352.01 138.928 351.902 139.561C351.794 140.194 351.657 140.851 351.491 141.533L320.486 138.859C320.86 141.353 321.857 143.447 323.478 145.139C325.152 146.836 327.343 147.801 330.053 148.035C332.391 148.236 334.456 147.879 336.248 146.963C338.093 146.052 339.563 144.84 340.657 143.329L348.483 150.347C346.611 152.809 343.957 154.721 340.52 156.084C337.084 157.447 333.32 157.952 329.228 157.599ZM332.025 123.313C329.475 123.093 327.23 123.675 325.29 125.06C323.351 126.446 321.981 128.362 321.181 130.809L341.665 132.575C341.277 130.24 340.225 128.169 338.507 126.361C336.843 124.558 334.682 123.542 332.025 123.313ZM355.083 158.786L358.658 117.339L369.1 118.24L368.419 126.131C369.366 123.215 370.969 121.078 373.228 119.72C375.491 118.31 378.419 117.866 382.014 118.391L381.141 128.513L379.627 128.382C376.545 128.117 373.856 128.875 371.561 130.658C369.266 132.44 367.97 135.059 367.672 138.512L365.843 159.714L355.083 158.786ZM395.023 163.275C388.062 162.674 382.532 159.761 378.432 154.536L386.256 148.547C388.991 152.209 392.086 154.189 395.54 154.486C397.4 154.647 398.842 154.37 399.867 153.655C400.95 152.892 401.544 151.9 401.65 150.677C401.714 149.934 401.583 149.28 401.257 148.716C400.984 148.158 400.31 147.591 399.236 147.016C398.214 146.447 396.635 145.829 394.497 145.162C390.856 143.938 388.189 142.584 386.497 141.1C384.805 139.616 383.738 138.025 383.295 136.327C382.853 134.629 382.707 132.904 382.858 131.15C383.17 127.537 384.784 124.652 387.7 122.494C390.674 120.288 394.579 119.394 399.414 119.811C402.762 120.1 405.588 120.852 407.892 122.068C410.196 123.284 412.291 125.365 414.178 128.311L405.852 133.615C404.98 131.934 403.936 130.693 402.72 129.893C401.557 129.096 400.285 128.639 398.904 128.52C397.416 128.391 396.142 128.576 395.082 129.073C394.075 129.575 393.517 130.464 393.407 131.739C393.347 132.43 393.607 133.148 394.185 133.894C394.767 134.586 396.253 135.357 398.642 136.205C402.594 137.563 405.572 139.025 407.579 140.59C409.59 142.101 410.92 143.742 411.571 145.511C412.221 147.28 412.457 149.201 412.278 151.273C412.058 153.824 411.144 156.047 409.535 157.942C407.979 159.842 405.929 161.271 403.383 162.229C400.892 163.192 398.105 163.54 395.023 163.275Z" fill="#FFFCFC"/>
<rect x="195" y="372" width="83" height="111" rx="20" fill="url(#paint2_linear_86_1316)"/>
<path d="M301.5 409V388H308.58C310.94 388 312.79 388.56 314.13 389.68C315.49 390.78 316.17 392.43 316.17 394.63C316.17 396.85 315.49 398.53 314.13 399.67C312.79 400.81 310.94 401.38 308.58 401.38H305.7V409H301.5ZM305.7 397.6H308.34C309.48 397.6 310.36 397.36 310.98 396.88C311.6 396.4 311.91 395.66 311.91 394.66C311.91 393.66 311.6 392.93 310.98 392.47C310.36 391.99 309.48 391.75 308.34 391.75H305.7V397.6ZM317.665 409V387.1H321.715V409H317.665ZM331.22 409.39C329.8 409.39 328.5 409.03 327.32 408.31C326.16 407.57 325.23 406.59 324.53 405.37C323.85 404.13 323.51 402.76 323.51 401.26C323.51 400.14 323.71 399.09 324.11 398.11C324.51 397.11 325.06 396.24 325.76 395.5C326.46 394.74 327.27 394.15 328.19 393.73C329.13 393.29 330.14 393.07 331.22 393.07C332.58 393.07 333.64 393.33 334.4 393.85C335.16 394.35 335.75 395.02 336.17 395.86V393.4H340.19V409H336.26V406.45C335.84 407.33 335.24 408.04 334.46 408.58C333.7 409.12 332.62 409.39 331.22 409.39ZM331.88 405.73C332.78 405.73 333.55 405.53 334.19 405.13C334.85 404.71 335.36 404.16 335.72 403.48C336.08 402.8 336.26 402.06 336.26 401.26C336.26 400.44 336.08 399.69 335.72 399.01C335.36 398.33 334.85 397.78 334.19 397.36C333.55 396.94 332.78 396.73 331.88 396.73C331.02 396.73 330.26 396.94 329.6 397.36C328.96 397.76 328.46 398.3 328.1 398.98C327.74 399.66 327.56 400.41 327.56 401.23C327.56 402.01 327.74 402.75 328.1 403.45C328.46 404.13 328.96 404.68 329.6 405.1C330.26 405.52 331.02 405.73 331.88 405.73ZM342.596 409V393.4H346.586V395.68C347.406 393.92 348.996 393.04 351.356 393.04C352.476 393.04 353.486 393.3 354.386 393.82C355.286 394.34 355.996 395.08 356.516 396.04C357.036 397 357.296 398.14 357.296 399.46V409H353.246V400.45C353.246 399.09 352.936 398.11 352.316 397.51C351.696 396.89 350.886 396.58 349.886 396.58C349.026 396.58 348.266 396.89 347.606 397.51C346.966 398.11 346.646 399.09 346.646 400.45V409H342.596ZM364.899 409.39C362.279 409.39 360.119 408.48 358.419 406.66L361.149 404.17C362.289 405.45 363.509 406.09 364.809 406.09C365.509 406.09 366.039 405.94 366.399 405.64C366.779 405.32 366.969 404.93 366.969 404.47C366.969 404.19 366.899 403.95 366.759 403.75C366.639 403.55 366.369 403.36 365.949 403.18C365.549 403 364.939 402.82 364.119 402.64C362.719 402.3 361.679 401.88 360.999 401.38C360.319 400.88 359.869 400.32 359.649 399.7C359.429 399.08 359.319 398.44 359.319 397.78C359.319 396.42 359.829 395.29 360.849 394.39C361.889 393.47 363.319 393.01 365.139 393.01C366.399 393.01 367.479 393.2 368.379 393.58C369.279 393.96 370.129 394.67 370.929 395.71L367.989 397.96C367.609 397.36 367.179 396.93 366.699 396.67C366.239 396.41 365.749 396.28 365.229 396.28C364.669 396.28 364.199 396.39 363.819 396.61C363.459 396.83 363.279 397.18 363.279 397.66C363.279 397.92 363.399 398.18 363.639 398.44C363.879 398.68 364.459 398.92 365.379 399.16C366.899 399.54 368.059 399.99 368.859 400.51C369.659 401.01 370.209 401.58 370.509 402.22C370.809 402.86 370.959 403.57 370.959 404.35C370.959 405.31 370.689 406.17 370.149 406.93C369.629 407.69 368.909 408.29 367.989 408.73C367.089 409.17 366.059 409.39 364.899 409.39ZM374.405 397.81C373.625 397.81 372.975 397.55 372.455 397.03C371.955 396.51 371.705 395.89 371.705 395.17C371.705 394.47 371.955 393.86 372.455 393.34C372.975 392.82 373.625 392.56 374.405 392.56C375.185 392.56 375.825 392.82 376.325 393.34C376.825 393.86 377.075 394.47 377.075 395.17C377.075 395.89 376.825 396.51 376.325 397.03C375.825 397.55 375.185 397.81 374.405 397.81ZM374.405 409.39C373.625 409.39 372.975 409.13 372.455 408.61C371.955 408.09 371.705 407.47 371.705 406.75C371.705 406.05 371.955 405.44 372.455 404.92C372.975 404.4 373.625 404.14 374.405 404.14C375.185 404.14 375.825 404.4 376.325 404.92C376.825 405.44 377.075 406.05 377.075 406.75C377.075 407.47 376.825 408.09 376.325 408.61C375.825 409.13 375.185 409.39 374.405 409.39ZM309.69 439.39C307.99 439.39 306.5 439.05 305.22 438.37C303.94 437.67 302.95 436.71 302.25 435.49C301.55 434.25 301.2 432.83 301.2 431.23V418H305.4V430.78C305.4 432.26 305.75 433.43 306.45 434.29C307.17 435.13 308.25 435.55 309.69 435.55C311.13 435.55 312.2 435.13 312.9 434.29C313.62 433.43 313.98 432.26 313.98 430.78V418H318.18V431.23C318.18 432.83 317.83 434.25 317.13 435.49C316.43 436.71 315.44 437.67 314.16 438.37C312.9 439.05 311.41 439.39 309.69 439.39ZM320.595 439V423.4H324.585V425.68C325.405 423.92 326.995 423.04 329.355 423.04C330.475 423.04 331.485 423.3 332.385 423.82C333.285 424.34 333.995 425.08 334.515 426.04C335.035 427 335.295 428.14 335.295 429.46V439H331.245V430.45C331.245 429.09 330.935 428.11 330.315 427.51C329.695 426.89 328.885 426.58 327.885 426.58C327.025 426.58 326.265 426.89 325.605 427.51C324.965 428.11 324.645 429.09 324.645 430.45V439H320.595ZM337.557 439V417.1H341.607V439H337.557ZM346.013 422.11C345.333 422.11 344.753 421.88 344.273 421.42C343.813 420.94 343.583 420.37 343.583 419.71C343.583 419.07 343.813 418.52 344.273 418.06C344.753 417.58 345.333 417.34 346.013 417.34C346.713 417.34 347.293 417.58 347.753 418.06C348.213 418.52 348.443 419.07 348.443 419.71C348.443 420.39 348.213 420.96 347.753 421.42C347.293 421.88 346.713 422.11 346.013 422.11ZM344.003 439V423.4H348.053V439H344.003ZM350.448 439V417.1H354.498V429.7L360.348 423.4H366.108L358.758 430.66L366.138 439H360.768L354.498 431.59V439H350.448ZM372.684 439.39C371.084 439.39 369.674 439.02 368.454 438.28C367.234 437.54 366.284 436.56 365.604 435.34C364.944 434.1 364.614 432.73 364.614 431.23C364.614 429.73 364.964 428.36 365.664 427.12C366.364 425.86 367.314 424.86 368.514 424.12C369.734 423.38 371.124 423.01 372.684 423.01C374.244 423.01 375.614 423.38 376.794 424.12C377.994 424.86 378.924 425.86 379.584 427.12C380.264 428.36 380.604 429.73 380.604 431.23C380.604 431.45 380.594 431.68 380.574 431.92C380.554 432.16 380.524 432.41 380.484 432.67H368.814C369.034 433.59 369.474 434.34 370.134 434.92C370.814 435.5 371.664 435.79 372.684 435.79C373.564 435.79 374.324 435.59 374.964 435.19C375.624 434.79 376.134 434.29 376.494 433.69L379.644 436.06C379.024 437.04 378.094 437.84 376.854 438.46C375.614 439.08 374.224 439.39 372.684 439.39ZM372.624 426.49C371.664 426.49 370.844 426.78 370.164 427.36C369.484 427.94 369.034 428.7 368.814 429.64H376.524C376.304 428.78 375.844 428.04 375.144 427.42C374.464 426.8 373.624 426.49 372.624 426.49ZM382.382 439V417.1H386.432V439H382.382ZM390.417 445.27C390.017 445.27 389.567 445.25 389.067 445.21C388.567 445.17 388.117 445.09 387.717 444.97L388.317 441.1C388.877 441.24 389.487 441.31 390.147 441.31C390.927 441.31 391.567 441.08 392.067 440.62C392.567 440.18 392.927 439.62 393.147 438.94L393.357 438.28L387.177 423.4H392.067L395.097 432.31C395.377 433.11 395.597 433.94 395.757 434.8C395.917 433.94 396.137 433.11 396.417 432.31L399.447 423.4H404.247L397.347 439.99C396.687 441.57 395.827 442.84 394.767 443.8C393.707 444.78 392.257 445.27 390.417 445.27Z" fill="#FFFCFC"/>
<path d="M209.33 351.385C208.373 351.385 207.463 351.303 206.6 351.14C205.737 350.977 205.06 350.743 204.57 350.44L206.425 346.415C206.938 346.788 207.685 346.975 208.665 346.975C209.482 346.975 210.158 346.777 210.695 346.38C211.255 345.96 211.535 345.272 211.535 344.315V326.5H216.435V344.49C216.435 346.077 216.12 347.383 215.49 348.41C214.883 349.413 214.043 350.16 212.97 350.65C211.92 351.14 210.707 351.385 209.33 351.385ZM227.696 351.455C226.039 351.455 224.523 351.035 223.146 350.195C221.793 349.332 220.708 348.188 219.891 346.765C219.098 345.318 218.701 343.72 218.701 341.97C218.701 340.663 218.934 339.438 219.401 338.295C219.868 337.128 220.509 336.113 221.326 335.25C222.143 334.363 223.088 333.675 224.161 333.185C225.258 332.672 226.436 332.415 227.696 332.415C229.283 332.415 230.519 332.718 231.406 333.325C232.293 333.908 232.981 334.69 233.471 335.67V332.8H238.161V351H233.576V348.025C233.086 349.052 232.386 349.88 231.476 350.51C230.589 351.14 229.329 351.455 227.696 351.455ZM228.466 347.185C229.516 347.185 230.414 346.952 231.161 346.485C231.931 345.995 232.526 345.353 232.946 344.56C233.366 343.767 233.576 342.903 233.576 341.97C233.576 341.013 233.366 340.138 232.946 339.345C232.526 338.552 231.931 337.91 231.161 337.42C230.414 336.93 229.516 336.685 228.466 336.685C227.463 336.685 226.576 336.93 225.806 337.42C225.059 337.887 224.476 338.517 224.056 339.31C223.636 340.103 223.426 340.978 223.426 341.935C223.426 342.845 223.636 343.708 224.056 344.525C224.476 345.318 225.059 345.96 225.806 346.45C226.576 346.94 227.463 347.185 228.466 347.185ZM240.968 351V332.8H245.623V335.46C246.58 333.407 248.435 332.38 251.188 332.38C252.495 332.38 253.673 332.683 254.723 333.29C255.773 333.897 256.602 334.76 257.208 335.88C257.815 337 258.118 338.33 258.118 339.87V351H253.393V341.025C253.393 339.438 253.032 338.295 252.308 337.595C251.585 336.872 250.64 336.51 249.473 336.51C248.47 336.51 247.583 336.872 246.813 337.595C246.067 338.295 245.693 339.438 245.693 341.025V351H240.968ZM267.513 351.42C266.207 351.42 265.028 351.117 263.978 350.51C262.928 349.903 262.1 349.04 261.493 347.92C260.887 346.777 260.583 345.447 260.583 343.93V332.8H265.308V342.775C265.308 344.338 265.623 345.482 266.253 346.205C266.883 346.928 267.782 347.29 268.948 347.29C269.952 347.29 270.827 346.928 271.573 346.205C272.343 345.482 272.728 344.338 272.728 342.775V332.8H277.453V351H272.868V348.27C272.425 349.32 271.772 350.113 270.908 350.65C270.068 351.163 268.937 351.42 267.513 351.42ZM288.536 351.455C286.879 351.455 285.362 351.035 283.986 350.195C282.632 349.332 281.547 348.188 280.731 346.765C279.937 345.318 279.541 343.72 279.541 341.97C279.541 340.663 279.774 339.438 280.241 338.295C280.707 337.128 281.349 336.113 282.166 335.25C282.982 334.363 283.927 333.675 285.001 333.185C286.097 332.672 287.276 332.415 288.536 332.415C290.122 332.415 291.359 332.718 292.246 333.325C293.132 333.908 293.821 334.69 294.311 335.67V332.8H299.001V351H294.416V348.025C293.926 349.052 293.226 349.88 292.316 350.51C291.429 351.14 290.169 351.455 288.536 351.455ZM289.306 347.185C290.356 347.185 291.254 346.952 292.001 346.485C292.771 345.995 293.366 345.353 293.786 344.56C294.206 343.767 294.416 342.903 294.416 341.97C294.416 341.013 294.206 340.138 293.786 339.345C293.366 338.552 292.771 337.91 292.001 337.42C291.254 336.93 290.356 336.685 289.306 336.685C288.302 336.685 287.416 336.93 286.646 337.42C285.899 337.887 285.316 338.517 284.896 339.31C284.476 340.103 284.266 340.978 284.266 341.935C284.266 342.845 284.476 343.708 284.896 344.525C285.316 345.318 285.899 345.96 286.646 346.45C287.416 346.94 288.302 347.185 289.306 347.185ZM301.808 351V332.8H306.393V336.265C306.697 334.958 307.315 333.967 308.248 333.29C309.182 332.59 310.442 332.287 312.028 332.38V336.825H311.363C310.01 336.825 308.867 337.257 307.933 338.12C307 338.983 306.533 340.173 306.533 341.69V351H301.808ZM315.9 358.315C315.433 358.315 314.908 358.292 314.325 358.245C313.741 358.198 313.216 358.105 312.75 357.965L313.45 353.45C314.103 353.613 314.815 353.695 315.585 353.695C316.495 353.695 317.241 353.427 317.825 352.89C318.408 352.377 318.828 351.723 319.085 350.93L319.33 350.16L312.12 332.8H317.825L321.36 343.195C321.686 344.128 321.943 345.097 322.13 346.1C322.316 345.097 322.573 344.128 322.9 343.195L326.435 332.8H332.035L323.985 352.155C323.215 353.998 322.211 355.48 320.975 356.6C319.738 357.743 318.046 358.315 315.9 358.315ZM337.849 351V350.44L347.649 338.89C348.396 338.027 348.991 337.21 349.434 336.44C349.877 335.647 350.099 334.877 350.099 334.13C350.099 333.08 349.784 332.228 349.154 331.575C348.524 330.922 347.637 330.595 346.494 330.595C345.351 330.595 344.464 330.945 343.834 331.645C343.227 332.322 342.924 333.29 342.924 334.55H337.849C337.849 332.87 338.222 331.388 338.969 330.105C339.739 328.822 340.777 327.83 342.084 327.13C343.391 326.407 344.884 326.045 346.564 326.045C348.267 326.045 349.761 326.395 351.044 327.095C352.327 327.795 353.331 328.74 354.054 329.93C354.801 331.097 355.174 332.403 355.174 333.85C355.174 334.83 355.022 335.763 354.719 336.65C354.416 337.513 353.856 338.458 353.039 339.485L349.224 344.455C348.921 344.852 348.582 345.248 348.209 345.645C347.859 346.042 347.474 346.392 347.054 346.695H355.314V351H337.849ZM367.276 351.455C365.41 351.455 363.753 351.023 362.306 350.16C360.883 349.297 359.763 348.153 358.946 346.73C358.153 345.283 357.756 343.685 357.756 341.935V335.635C357.756 333.885 358.153 332.298 358.946 330.875C359.763 329.428 360.883 328.273 362.306 327.41C363.753 326.547 365.41 326.115 367.276 326.115C369.166 326.115 370.823 326.547 372.246 327.41C373.67 328.273 374.778 329.428 375.571 330.875C376.388 332.298 376.796 333.885 376.796 335.635V341.935C376.796 343.685 376.388 345.283 375.571 346.73C374.778 348.153 373.67 349.297 372.246 350.16C370.823 351.023 369.166 351.455 367.276 351.455ZM367.276 346.905C368.793 346.905 369.913 346.38 370.636 345.33C371.36 344.28 371.721 342.962 371.721 341.375V336.23C371.721 334.457 371.36 333.092 370.636 332.135C369.913 331.155 368.793 330.665 367.276 330.665C365.783 330.665 364.663 331.155 363.916 332.135C363.193 333.092 362.831 334.457 362.831 336.23V341.375C362.831 342.962 363.193 344.28 363.916 345.33C364.663 346.38 365.783 346.905 367.276 346.905ZM378.625 351V350.44L388.425 338.89C389.172 338.027 389.767 337.21 390.21 336.44C390.654 335.647 390.875 334.877 390.875 334.13C390.875 333.08 390.56 332.228 389.93 331.575C389.3 330.922 388.414 330.595 387.27 330.595C386.127 330.595 385.24 330.945 384.61 331.645C384.004 332.322 383.7 333.29 383.7 334.55H378.625C378.625 332.87 378.999 331.388 379.745 330.105C380.515 328.822 381.554 327.83 382.86 327.13C384.167 326.407 385.66 326.045 387.34 326.045C389.044 326.045 390.537 326.395 391.82 327.095C393.104 327.795 394.107 328.74 394.83 329.93C395.577 331.097 395.95 332.403 395.95 333.85C395.95 334.83 395.799 335.763 395.495 336.65C395.192 337.513 394.632 338.458 393.815 339.485L390 344.455C389.697 344.852 389.359 345.248 388.985 345.645C388.635 346.042 388.25 346.392 387.83 346.695H396.09V351H378.625ZM398.261 351L407.291 331.925C407.454 331.575 407.687 331.202 407.991 330.805H396.616V326.5H414.991L415.061 327.025L403.511 351H398.261Z" fill="#FFFCFC"/>
<g filter="url(#filter2_d_86_1316)">
<path d="M281.533 455.134C281.601 461.175 285.539 466.028 290.328 465.974C295.117 465.92 298.945 460.979 298.877 454.938C298.809 448.897 294.871 444.044 290.082 444.098C285.293 444.152 281.465 449.093 281.533 455.134Z" fill="#FFFCFC"/>
<path d="M256.245 454.084C254.718 454.546 254.771 457.23 256.315 457.62L287.755 465.549C288.706 465.789 289.581 464.859 289.522 463.671L288.665 446.478C288.609 445.344 288.666 444.247 287.769 444.519L256.245 454.084Z" fill="#FFFCFC"/>
</g>
<defs>
<filter id="filter0_d_86_1316" x="-10" y="545" width="469" height="468" filterUnits="userSpaceOnUse" color-interpolation-filters="sRGB">
<feFlood flood-opacity="0" result="BackgroundImageFix"/>
<feColorMatrix in="SourceAlpha" type="matrix" values="0 0 0 0 0 0 0 0 0 0 0 0 0 0 0 0 0 0 127 0" result="hardAlpha"/>
<feOffset dy="8"/>
<feGaussianBlur stdDeviation="10"/>
<feComposite in2="hardAlpha" operator="out"/>
<feColorMatrix type="matrix" values="0 0 0 0 0 0 0 0 0 0 0 0 0 0 0 0 0 0 0.08 0"/>
<feBlend mode="normal" in2="BackgroundImageFix" result="effect1_dropShadow_86_1316"/>
<feBlend mode="normal" in="SourceGraphic" in2="effect1_dropShadow_86_1316" result="shape"/>
</filter>
<filter id="filter2_d_86_1316" x="251.128" y="444.097" width="51.7498" height="29.8776" filterUnits="userSpaceOnUse" color-interpolation-filters="sRGB">
<feFlood flood-opacity="0" result="BackgroundImageFix"/>
<feColorMatrix in="SourceAlpha" type="matrix" values="0 0 0 0 0 0 0 0 0 0 0 0 0 0 0 0 0 0 127 0" result="hardAlpha"/>
<feOffset dy="4"/>
<feGaussianBlur stdDeviation="2"/>
<feComposite in2="hardAlpha" operator="out"/>
<feColorMatrix type="matrix" values="0 0 0 0 0 0 0 0 0 0 0 0 0 0 0 0 0 0 0.25 0"/>
<feBlend mode="normal" in2="BackgroundImageFix" result="effect1_dropShadow_86_1316"/>
<feBlend mode="normal" in="SourceGraphic" in2="effect1_dropShadow_86_1316" result="shape"/>
</filter>
<linearGradient id="paint0_linear_86_1316" x1="224.5" y1="557" x2="224.5" y2="985" gradientUnits="userSpaceOnUse">
<stop stop-color="#FF774E"/>
<stop offset="1" stop-color="#EEE2D4"/>
</linearGradient>
<radialGradient id="paint1_radial_86_1316" cx="0" cy="0" r="1" gradientUnits="userSpaceOnUse" gradientTransform="translate(224.5 416) rotate(90) scale(120 212.5)">
<stop stop-color="#FF774E"/>
<stop offset="1" stop-color="#EEE2D4"/>
</radialGradient>
<linearGradient id="paint2_linear_86_1316" x1="236.5" y1="372" x2="236.5" y2="483" gradientUnits="userSpaceOnUse">
<stop offset="0.0288462" stop-color="#4379FF"/>
<stop offset="0.504808" stop-color="#B6C4FF"/>
<stop offset="1" stop-color="#FFD0C2"/>
</linearGradient>
<clipPath id="clip0_86_1316">
<rect width="450" height="994" rx="2" fill="white"/>
</clipPath>
</defs>
</svg>
