<svg width="440" height="956" viewBox="0 0 440 956" fill="none" xmlns="http://www.w3.org/2000/svg">
<rect width="440" height="956" fill="url(#paint0_linear_113_1189)"/>
<defs>
<linearGradient id="paint0_linear_113_1189" x1="220" y1="0" x2="220" y2="956" gradientUnits="userSpaceOnUse">
<stop stop-color="#FFFCFC"/>
<stop offset="0.466346" stop-color="#EEE2D4"/>
<stop offset="1" stop-color="#FFFCFC"/>
</linearGradient>
</defs>
<g transform="translate(15 17)">
  <circle cx="34" cy="34" r="34" fill="#4379FF"/>
  <line x1="33.5996" y1="13.015" x2="33.4006" y2="54.0247" stroke="#FFFCFC" stroke-width="8" stroke-linecap="round"/>
  <line x1="54.9837" y1="33.2878" x2="13.9743" y2="33.0256" stroke="#FFFCFC" stroke-width="8" stroke-linecap="round"/>
</g>
<defs>
<filter id="filter0_d_113_1199" x="0" y="0" width="465" height="116" filterUnits="userSpaceOnUse" color-interpolation-filters="sRGB">
<feFlood flood-opacity="0" result="BackgroundImageFix"/>
<feColorMatrix in="SourceAlpha" type="matrix" values="0 0 0 0 0 0 0 0 0 0 0 0 0 0 0 0 0 0 0 127 0" result="hardAlpha"/>
<feMorphology radius="5" operator="dilate" in="SourceAlpha" result="effect1_dropShadow_113_1199"/>
<feOffset dy="4"/>
<feGaussianBlur stdDeviation="10"/>
<feComposite in2="hardAlpha" operator="out"/>
<feColorMatrix type="matrix" values="0 0 0 0 0.907692 0 0 0 0 0.843596 0 0 0 0 0.774157 0 0 0 1 0"/>
<feBlend mode="normal" in2="BackgroundImageFix" result="effect1_dropShadow_113_1199"/>
<feBlend mode="normal" in="SourceGraphic" in2="effect1_dropShadow_113_1199" result="shape"/>
</filter>
</defs>
<g transform="translate(-10 78)">
  <g filter="url(#filter0_d_113_1199)">
    <rect x="25" y="21" width="415" height="66" rx="20" fill="#FFFCFC"/>
  </g>
  <path d="M395.115 41.2121C394.316 40.118 392.684 40.118 391.885 41.2121L377.202 61.3206C376.237 62.6421 377.181 64.5 378.817 64.5H408.183C409.819 64.5 410.763 62.6421 409.798 61.3206L395.115 41.2121Z" fill="#1F285B"/>
  <path d="M74.8164 68V40H79.0564L92.6964 56.2C93.0164 56.5733 93.3231 56.96 93.6164 57.36C93.9364 57.7333 94.2431 58.12 94.5364 58.52C94.4564 57.9333 94.4031 57.24 94.3764 56.44C94.3497 55.6133 94.3364 54.7867 94.3364 53.96V40H99.4564V68H95.8164L81.6564 51.16C81.3364 50.7867 81.0164 50.4133 80.6964 50.04C80.4031 49.64 80.1097 49.24 79.8164 48.84C79.8964 49.4267 79.9497 50.1333 79.9764 50.96C80.0031 51.76 80.0164 52.5733 80.0164 53.4V68H74.8164ZM113.329 68.52C111.196 68.52 109.289 68.0267 107.609 67.04C105.929 66.0533 104.609 64.7467 103.649 63.12C102.716 61.4667 102.249 59.64 102.249 57.64C102.249 55.64 102.716 53.8133 103.649 52.16C104.609 50.5067 105.929 49.1867 107.609 48.2C109.289 47.2133 111.196 46.72 113.329 46.72C115.489 46.72 117.396 47.2133 119.049 48.2C120.729 49.1867 122.036 50.5067 122.969 52.16C123.929 53.8133 124.409 55.64 124.409 57.64C124.409 59.64 123.929 61.4667 122.969 63.12C122.036 64.7467 120.729 66.0533 119.049 67.04C117.396 68.0267 115.489 68.52 113.329 68.52ZM113.329 63.6C114.476 63.6 115.476 63.3333 116.329 62.8C117.183 62.24 117.836 61.5067 118.289 60.6C118.769 59.6933 119.009 58.7067 119.009 57.64C119.009 56.5467 118.769 55.5467 118.289 54.64C117.836 53.7333 117.183 53.0133 116.329 52.48C115.476 51.92 114.476 51.64 113.329 51.64C112.183 51.64 111.183 51.92 110.329 52.48C109.476 53.0133 108.809 53.7333 108.329 54.64C107.876 55.5467 107.649 56.5467 107.649 57.64C107.649 58.7067 107.876 59.6933 108.329 60.6C108.809 61.5067 109.476 62.24 110.329 62.8C111.183 63.3333 112.183 63.6 113.329 63.6ZM133.41 68V40H149.85V45.04H139.01V51.6H149.65V56.56H139.01V68H133.41ZM155.534 45.48C154.627 45.48 153.854 45.1733 153.214 44.56C152.601 43.92 152.294 43.16 152.294 42.28C152.294 41.4267 152.601 40.6933 153.214 40.08C153.854 39.44 154.627 39.12 155.534 39.12C156.467 39.12 157.241 39.44 157.854 40.08C158.467 40.6933 158.774 41.4267 158.774 42.28C158.774 43.1867 158.467 43.9467 157.854 44.56C157.241 45.1733 156.467 45.48 155.534 45.48ZM152.854 68V47.2H158.254V68H152.854ZM161.448 68V38.8H166.848V68H161.448ZM177.921 68C175.868 68 174.295 67.4933 173.201 66.48C172.108 65.4667 171.561 63.8267 171.561 61.56V51.8H168.641V47.2H171.561V43L176.961 42.44V47.2H181.361V51.8H176.961V61.28C176.961 62.56 177.521 63.2 178.641 63.2H180.881V68H177.921ZM192.58 68.52C190.446 68.52 188.566 68.0267 186.94 67.04C185.313 66.0533 184.046 64.7467 183.14 63.12C182.26 61.4667 181.82 59.64 181.82 57.64C181.82 55.64 182.286 53.8133 183.22 52.16C184.153 50.48 185.42 49.1467 187.02 48.16C188.646 47.1733 190.5 46.68 192.58 46.68C194.66 46.68 196.486 47.1733 198.06 48.16C199.66 49.1467 200.9 50.48 201.78 52.16C202.686 53.8133 203.14 55.64 203.14 57.64C203.14 57.9333 203.126 58.24 203.1 58.56C203.073 58.88 203.033 59.2133 202.98 59.56H187.42C187.713 60.7867 188.3 61.7867 189.18 62.56C190.086 63.3333 191.22 63.72 192.58 63.72C193.753 63.72 194.766 63.4533 195.62 62.92C196.5 62.3867 197.18 61.72 197.66 60.92L201.86 64.08C201.033 65.3867 199.793 66.4533 198.14 67.28C196.486 68.1067 194.633 68.52 192.58 68.52ZM192.5 51.32C191.22 51.32 190.126 51.7067 189.22 52.48C188.313 53.2533 187.713 54.2667 187.42 55.52H197.7C197.406 54.3733 196.793 53.3867 195.86 52.56C194.953 51.7333 193.833 51.32 192.5 51.32ZM205.51 68V47.2H210.75V51.16C211.097 49.6667 211.803 48.5333 212.87 47.76C213.937 46.96 215.377 46.6133 217.19 46.72V51.8H216.43C214.883 51.8 213.577 52.2933 212.51 53.28C211.443 54.2667 210.91 55.6267 210.91 57.36V68H205.51ZM225.599 68.52C222.106 68.52 219.226 67.3067 216.959 64.88L220.599 61.56C222.119 63.2667 223.746 64.12 225.479 64.12C226.412 64.12 227.119 63.92 227.599 63.52C228.106 63.0933 228.359 62.5733 228.359 61.96C228.359 61.5867 228.266 61.2667 228.079 61C227.919 60.7333 227.559 60.48 226.999 60.24C226.466 60 225.652 59.76 224.559 59.52C222.692 59.0667 221.306 58.5067 220.399 57.84C219.492 57.1733 218.892 56.4267 218.599 55.6C218.306 54.7733 218.159 53.92 218.159 53.04C218.159 51.2267 218.839 49.72 220.199 48.52C221.586 47.2933 223.492 46.68 225.919 46.68C227.599 46.68 229.039 46.9333 230.239 47.44C231.439 47.9467 232.572 48.8933 233.639 50.28L229.719 53.28C229.212 52.48 228.639 51.9067 227.999 51.56C227.386 51.2133 226.732 51.04 226.039 51.04C225.292 51.04 224.666 51.1867 224.159 51.48C223.679 51.7733 223.439 52.24 223.439 52.88C223.439 53.2267 223.599 53.5733 223.919 53.92C224.239 54.24 225.012 54.56 226.239 54.88C228.266 55.3867 229.812 55.9867 230.879 56.68C231.946 57.3467 232.679 58.1067 233.079 58.96C233.479 59.8133 233.679 60.76 233.679 61.8C233.679 63.08 233.319 64.2267 232.599 65.24C231.906 66.2533 230.946 67.0533 229.719 67.64C228.519 68.2267 227.146 68.52 225.599 68.52Z" fill="#1F285B"/>
</g>
</svg>

