<svg width="466" height="472" viewBox="0 0 466 472" fill="none" xmlns="http://www.w3.org/2000/svg">
  <g filter="url(#filter0_d_120_1282)">
    <path d="M248.282 367.084C270.141 364.583 289.906 380.446 292.429 402.515C294.951 424.583 279.275 444.501 257.416 447.001C235.557 449.502 215.792 433.639 213.269 411.57C210.747 389.502 226.423 369.585 248.282 367.084Z" fill="#FF3C00"/>
    <path d="M230.142 251.182C230.947 243.936 240.672 242.929 242.954 249.855L289.431 390.869C290.838 395.136 287.976 399.595 283.65 399.876L221.062 403.941C216.935 404.209 213.005 404.986 213.478 400.728L230.142 251.182Z" fill="#FF3C00"/>
    <path d="M309.161 352.507C327.81 341.179 352.419 347.636 364.127 366.928C375.835 386.219 370.208 411.041 351.559 422.368C332.911 433.696 308.302 427.239 296.594 407.947C284.886 388.655 290.513 363.834 309.161 352.507Z" fill="#4379FF"/>
    <path d="M243.26 253.207C240.888 246.199 249.23 241.256 254.249 246.695L356.445 357.435C359.538 360.786 358.862 366.075 355.08 368.12L300.362 397.701C296.755 399.652 293.542 401.99 292.148 397.872L243.26 253.207Z" fill="#4379FF"/>
    <path d="M348.25 144.66C359.353 160.683 382.425 163.913 399.782 151.875C417.139 139.837 422.209 117.089 411.106 101.067C400.003 85.0439 376.931 81.8137 359.574 93.8518C342.217 105.89 337.147 128.638 348.25 144.66Z" fill="#FBC701"/>
    <path d="M254.205 204.645C249.47 209.678 254.485 216.741 260.812 213.95L389.639 157.125C393.538 155.405 395.054 150.742 392.703 147.704L358.688 103.749C356.445 100.851 354.684 97.7663 351.901 100.724L254.205 204.645Z" fill="#FBC701"/>
    <path d="M305.721 108.867C322.307 119.103 344.368 113.431 354.994 96.1974C365.621 78.964 360.79 56.6955 344.204 46.4592C327.618 36.2229 305.558 41.8952 294.931 59.1287C284.304 76.3621 289.135 98.6306 305.721 108.867Z" fill="#FF3C00"/>
    <path d="M245.981 197.545C243.803 203.814 251.223 208.282 255.756 203.431L348.048 104.669C350.841 101.68 350.28 96.9374 346.914 95.0877L298.218 68.3272C295.008 66.563 292.153 64.4526 290.873 68.137L245.981 197.545Z" fill="#FF3C00"/>
    <path d="M189.572 360.386C208.779 366.494 218.877 388.672 212.125 409.921C205.374 431.171 184.33 443.447 165.123 437.339C145.916 431.231 135.819 409.054 142.57 387.804C149.322 366.554 170.365 354.279 189.572 360.386Z" fill="#FBC701"/>
    <path d="M220.956 246.902C224.533 240.553 233.035 243.367 232.158 250.609L214.3 398.067C213.76 402.529 209.589 405.526 205.873 404.12L152.12 383.79C148.576 382.449 144.991 381.652 147.093 377.921L220.956 246.902Z" fill="#FBC701"/>
    <path d="M142.916 324.205C158.623 338.122 159.94 362.299 145.858 378.206C131.777 394.113 107.628 395.726 91.9204 381.809C76.2131 367.892 74.8956 343.715 88.9775 327.808C103.059 311.901 127.208 310.288 142.916 324.205Z" fill="#4379FF"/>
    <path d="M213.755 237.189C219.419 233.125 226.332 239.384 222.863 245.434L152.228 368.628C150.09 372.357 145.098 373.177 142.141 370.286L99.3669 328.46C96.5469 325.702 93.4898 323.409 96.8186 321.021L213.755 237.189Z" fill="#4379FF"/>
    <path d="M146.76 117.603C131.385 130.921 107.594 128.629 93.6228 112.485C79.6513 96.3414 80.7893 72.4581 96.1645 59.1405C111.54 45.8229 135.33 48.1141 149.301 64.2581C163.273 80.4021 162.135 104.285 146.76 117.603Z" fill="#FF3C00"/>
    <path d="M223.883 199.852C227.22 205.999 220.323 211.841 214.796 207.548L102.272 120.141C98.8665 117.495 98.6256 112.485 101.785 110.019L147.496 74.334C150.51 71.9814 153.096 69.3277 155.057 72.9408L223.883 199.852Z" fill="#FF3C00"/>
    <path d="M115.207 164.92C106.921 182.567 85.3523 189.892 67.0322 181.282C48.712 172.672 40.578 151.387 48.8643 133.741C57.1505 116.094 78.7193 108.769 97.0394 117.379C115.36 125.989 123.494 147.274 115.207 164.92Z" fill="#4379FF"/>
    <path d="M213.712 206.457C218.963 210.513 215.195 218.313 208.748 216.734L77.4799 184.571C73.5072 183.598 71.3836 179.321 73.1897 175.93L99.3184 126.878C101.041 123.644 102.276 120.315 105.363 122.699L213.712 206.457Z" fill="#4379FF"/>
    <path d="M96.4676 220.185C97.0497 199.393 80.4071 182.059 59.2953 181.467C38.1835 180.875 20.597 197.251 20.0148 218.042C19.4326 238.834 36.0752 256.169 57.1871 256.76C78.2989 257.352 95.8854 240.977 96.4676 220.185Z" fill="#FBC701"/>
    <path d="M207.745 227.9C214.543 226.557 214.703 217.315 207.955 215.725L70.5728 183.349C66.415 182.369 62.4257 185.425 62.5131 189.522L63.7772 248.804C63.8605 252.712 63.4456 256.477 67.441 255.687L207.745 227.9Z" fill="#FBC701"/>
    <path d="M111.083 275.889C103.162 256.868 81.1203 247.958 61.8509 255.99C42.5816 264.021 33.3818 285.951 41.3027 304.972C49.2235 323.993 71.2656 332.902 90.5349 324.871C109.804 316.84 119.004 294.91 111.083 275.889Z" fill="#FF3C00"/>
    <path d="M214.516 237.711C220.098 233.739 216.488 225.325 209.761 226.626L72.7802 253.114C68.6346 253.916 66.2801 258.295 68.0233 261.962L93.2429 315.009C94.9056 318.506 96.0609 322.076 99.3413 319.741L214.516 237.711Z" fill="#FF3C00"/>
    <path d="M197.89 91.7297C178.647 97.5838 158.175 86.3011 152.165 66.529C146.155 46.757 156.883 25.9828 176.125 20.1287C195.368 14.2745 215.839 25.5572 221.849 45.3293C227.859 65.1014 217.132 85.8755 197.89 91.7297Z" fill="#FBC701"/>
    <path d="M233.855 194.773C234.36 201.531 225.781 204.039 222.554 198.077L156.836 76.6914C154.847 73.0178 156.666 68.4734 160.511 67.5104L216.132 53.5784C219.799 52.6599 223.203 51.3077 223.5 55.2796L233.855 194.773Z" fill="#FBC701"/>
    <path d="M254.263 89.8497C234.908 87.5797 221.148 69.2596 223.53 48.9306C225.912 28.6016 243.534 13.962 262.89 16.232C282.246 18.5021 296.005 36.8222 293.623 57.1511C291.241 77.4801 273.619 92.1197 254.263 89.8497Z" fill="#4379FF"/>
    <path d="M245.969 197.626C243.78 203.963 235.19 202.859 234.653 196.172L223.709 60.0029C223.378 55.8819 226.765 52.4714 230.551 53.1126L285.332 62.3894C288.944 63.001 292.492 63.1151 291.205 66.8397L245.969 197.626Z" fill="#4379FF"/>
    <path d="M369.438 196.448C373.451 215.98 393.474 228.365 414.162 224.112C434.85 219.858 448.368 200.576 444.355 181.045C440.343 161.513 420.319 149.128 399.631 153.381C378.944 157.635 365.426 176.917 369.438 196.448Z" fill="#4379FF"/>
    <path d="M259.384 214.579C253.06 217.381 254.94 226.039 261.86 225.987L402.766 224.923C407.03 224.891 410.242 221.132 409.254 217.328L394.967 162.305C394.025 158.678 393.6 155.07 389.883 156.717L259.384 214.579Z" fill="#4379FF"/>
    <path d="M369.711 252.914C365.627 272.401 379.073 291.713 399.743 296.049C420.414 300.385 440.482 288.103 444.566 268.616C448.65 249.13 435.204 229.818 414.533 225.482C393.863 221.146 373.795 233.428 369.711 252.914Z" fill="#FF3C00"/>
    <path d="M261.535 225.729C254.62 225.778 252.902 234.457 259.272 237.163L388.966 292.257C392.891 293.925 397.332 291.759 397.938 287.883L406.706 231.799C407.284 228.102 408.328 224.629 404.264 224.658L261.535 225.729Z" fill="#FF3C00"/>
    <path d="M349.14 306.114C337.474 322.46 341.95 345.665 359.139 357.943C376.327 370.221 399.719 366.923 411.385 350.577C423.051 334.23 418.575 311.026 401.387 298.748C384.198 286.47 360.807 289.768 349.14 306.114Z" fill="#FBC701"/>
    <path d="M261.016 237.713C254.656 234.989 249.553 242.31 254.292 247.358L350.799 350.129C353.72 353.239 358.672 353.019 360.803 349.685L391.642 301.443C393.675 298.263 396.044 295.476 392.307 293.876L261.016 237.713Z" fill="#FBC701"/>
  </g>
  <defs>
    <filter id="filter0_d_120_1282" x="0" y="0" width="465.297" height="471.26" filterUnits="userSpaceOnUse" color-interpolation-filters="sRGB">
      <feFlood flood-opacity="0" result="BackgroundImageFix"/>
      <feColorMatrix in="SourceAlpha" type="matrix" values="0 0 0 0 0 0 0 0 0 0 0 0 0 0 0 0 0 0 0 127 0" result="hardAlpha"/>
      <feOffset dy="4"/>
      <feGaussianBlur stdDeviation="10"/>
      <feComposite in2="hardAlpha" operator="out"/>
      <feColorMatrix type="matrix" values="0 0 0 0 0 0 0 0 0 0 0 0 0 0 0 0 0 0 0 0.25 0"/>
      <feBlend mode="normal" in2="BackgroundImageFix" result="effect1_dropShadow_120_1282"/>
      <feBlend mode="normal" in="SourceGraphic" in2="effect1_dropShadow_120_1282" result="shape"/>
    </filter>
  </defs>
</svg>

