<svg width="60" height="51" viewBox="0 0 60 51" fill="none" xmlns="http://www.w3.org/2000/svg">
<path d="M60 35C60 48.8071 43.0685 51 26.5 51C9.93146 51 0 36.8071 0 23C0 9.19288 9.93146 0 26.5 0C43.0685 0 60 21.1929 60 35Z" fill="white"/>
<path d="M43 36.5C43 32.3579 39.6421 29 35.5 29H24.5C20.3579 29 17 32.3579 17 36.5V43C17 43.5523 17.4477 44 18 44H42C42.5523 44 43 43.5523 43 43V36.5Z" fill="#B6C4FF"/>
<path d="M21 19.5C21 24.1944 24.8056 26.5 29.5 26.5C34.1944 26.5 38 24.1944 38 19.5C38 14.8056 34.1944 11 29.5 11C24.8056 11 21 14.8056 21 19.5Z" fill="#B6C4FF"/>
</svg>
