<svg width="473" height="488" viewBox="0 0 473 488" fill="none" xmlns="http://www.w3.org/2000/svg">
<path d="M0 44.5404C0 20.7535 20.6341 2.2228 44.2842 4.7705L424.142 45.6906C434.3 46.7848 442 55.3589 442 65.5755V138.5V226C442 228.761 439.761 231 437 231H10C4.47715 231 0 226.523 0 221V44.5404Z" fill="#4379FF"/>
<path d="M442 169.54C442 145.753 421.366 127.223 397.716 129.77L17.8579 170.691C7.70007 171.785 0 180.359 0 190.576V263.5V351C0 353.761 2.23859 356 5 356H432C437.523 356 442 351.523 442 346V169.54Z" fill="#FBC701"/>
<path d="M0 301.54C0 277.753 20.6341 259.223 44.2842 261.77L424.142 302.691C434.3 303.785 442 312.359 442 322.576V395.5V483C442 485.761 439.761 488 437 488H10C4.47715 488 0 483.523 0 478V301.54Z" fill="#FF3C00"/>
<path d="M43.1739 76.5655L47.9521 34.8382L56.2976 35.7938L54.3726 52.604L71.6597 54.5835L73.5846 37.7734L81.9301 38.729L77.1519 80.4563L68.8064 79.5007L70.7996 62.0944L53.5126 60.1149L51.5194 77.5211L43.1739 76.5655ZM90.3491 47.9668C88.9979 47.812 87.8978 47.2231 87.0487 46.1998C86.2439 45.1414 85.9165 43.9565 86.0667 42.645C86.2123 41.3733 86.7945 40.3328 87.8132 39.5234C88.8762 38.6789 90.0832 38.334 91.4344 38.4887C92.8253 38.648 93.9232 39.2568 94.728 40.3153C95.5374 41.334 95.8692 42.4791 95.7236 43.7508C95.5689 45.102 94.9822 46.1823 93.9635 46.9916C92.9448 47.801 91.74 48.126 90.3491 47.9668ZM82.5122 81.0701L86.0617 50.0727L94.1091 50.9942L90.5596 81.9916L82.5122 81.0701ZM108.947 96.9606C105.807 96.6011 103.055 95.8432 100.692 94.6867C98.3631 93.5746 96.3901 91.8187 94.7725 89.4191L100.456 84.0911C101.735 85.9286 103.135 87.2363 104.657 88.0145C106.178 88.7926 107.912 89.2932 109.859 89.5161C111.29 89.68 112.662 89.4748 113.976 88.9005C115.29 88.3262 116.38 87.4244 117.245 86.1948C118.146 85.0096 118.69 83.6023 118.876 81.973L119.033 80.6019C118.035 81.937 116.75 82.9575 115.18 83.6634C113.649 84.3739 111.632 84.5858 109.128 84.2991C106.307 83.976 103.825 82.9671 101.684 81.2726C99.5829 79.5825 98.013 77.4702 96.9746 74.9356C95.9407 72.3613 95.5945 69.5839 95.9358 66.6033C96.2771 63.6228 97.2422 60.9956 98.8312 58.7216C100.42 56.4476 102.427 54.7448 104.851 53.6133C107.32 52.4466 109.965 52.0248 112.787 52.3479C115.37 52.6437 117.325 53.3305 118.651 54.4083C120.016 55.4907 121.03 56.8348 121.692 58.4405L122.176 54.2081L130.104 55.116L126.869 83.3714C126.505 86.5506 125.495 89.213 123.841 91.3587C122.226 93.5089 120.135 95.0612 117.57 96.0156C115 97.0097 112.126 97.3247 108.947 96.9606ZM111.279 77.1172C113.942 77.4221 116.104 76.8242 117.765 75.3234C119.427 73.8227 120.397 71.8603 120.674 69.4361C120.952 67.012 120.451 64.8811 119.172 63.0437C117.892 61.2062 115.921 60.135 113.259 59.8301C110.636 59.5298 108.494 60.13 106.832 61.6307C105.21 63.136 104.261 65.1007 103.983 67.5248C103.806 69.0747 103.96 70.5418 104.445 71.926C104.971 73.3148 105.804 74.4771 106.945 75.413C108.086 76.3489 109.531 76.9169 111.279 77.1172ZM131.295 86.6562L136.278 43.1406L144.325 44.0621L142.4 60.8722C144.452 57.7252 147.762 56.4133 152.333 56.9366C154.558 57.1915 156.506 57.9379 158.176 59.1759C159.846 60.414 161.088 62.0459 161.903 64.0717C162.718 66.0976 162.975 68.422 162.675 71.0448L160.504 90.0009L152.457 89.0794L154.402 72.0905C154.711 69.3881 154.319 67.3703 153.223 66.037C152.132 64.664 150.593 63.8637 148.606 63.6362C146.897 63.4405 145.317 63.8836 143.864 64.9653C142.456 66.0119 141.597 67.8864 141.288 70.5887L139.342 87.5777L131.295 86.6562ZM188.18 93.9552C184.882 93.5775 181.921 92.5339 179.299 90.8245C176.721 89.0798 174.699 86.5132 173.235 83.1247L180.974 79.3606C181.801 81.6295 182.973 83.3539 184.488 84.534C186.008 85.6744 187.682 86.3492 189.51 86.5585C191.458 86.7815 193.038 86.5196 194.251 85.7727C195.463 85.0258 196.152 83.9371 196.316 82.5064C196.475 81.1155 196.165 79.9527 195.386 79.0181C194.608 78.0834 193.513 77.2736 192.101 76.5886C190.73 75.9081 189.215 75.2515 187.556 74.6187C184.433 73.4155 182.026 71.751 180.337 69.625C178.653 67.4593 177.99 64.8067 178.35 61.6672C178.636 59.1636 179.503 57.0484 180.949 55.3217C182.394 53.595 184.269 52.3401 186.573 51.5571C188.917 50.7787 191.559 50.5579 194.5 50.8947C197.759 51.2678 200.404 52.2551 202.435 53.8566C204.466 55.458 206.115 57.5794 207.383 60.2208L199.724 63.8129C198.917 62.0697 198.021 60.7592 197.034 59.8813C196.048 59.0034 194.78 58.4757 193.23 58.2982C191.561 58.107 190.122 58.365 188.914 59.0722C187.745 59.7839 187.081 60.8352 186.922 62.2261C186.744 63.7759 187.251 64.9813 188.44 65.8423C189.674 66.668 191.174 67.4638 192.938 68.2295C194.124 68.7679 195.441 69.4018 196.887 70.1311C198.378 70.8252 199.784 71.7311 201.105 72.8486C202.431 73.9265 203.463 75.2927 204.199 76.9472C204.936 78.6018 205.168 80.6212 204.894 83.0057C204.608 85.5093 203.739 87.6443 202.289 89.4108C200.839 91.1773 198.919 92.4673 196.531 93.2809C194.143 94.0945 191.36 94.3193 188.18 93.9552ZM221.609 97.7831C219.383 97.5283 217.345 96.8721 215.493 95.8146C213.681 94.7616 212.124 93.4157 210.822 91.777C209.525 90.0984 208.57 88.2378 207.958 86.1949C207.391 84.1169 207.237 81.9453 207.497 79.6801C207.842 76.6598 208.85 74.0173 210.518 71.7524C212.231 69.4523 214.403 67.7081 217.036 66.5199C219.708 65.3362 222.613 64.9241 225.753 65.2836C228.579 65.5669 231.046 66.3527 233.153 67.6407C235.26 68.9288 236.865 70.562 237.967 72.5402L231.187 76.8972C230.595 75.7423 229.758 74.7809 228.679 74.0131C227.639 73.2499 226.424 72.7886 225.033 72.6293C223.324 72.4336 221.786 72.6803 220.418 73.3692C219.056 74.0184 217.939 74.9776 217.069 76.2469C216.239 77.5207 215.731 78.9722 215.544 80.6016C215.362 82.1912 215.549 83.7224 216.105 85.1953C216.705 86.6329 217.594 87.8418 218.77 88.822C219.99 89.7669 221.455 90.3373 223.164 90.5329C224.714 90.7104 226.064 90.5228 227.214 89.9701C228.369 89.3776 229.405 88.5904 230.323 87.6084L235.584 93.3443C233.9 95.0437 231.904 96.3047 229.595 97.1274C227.331 97.915 224.669 98.1335 221.609 97.7831ZM238.175 98.895L243.158 55.3793L251.205 56.3008L249.28 73.111C251.331 69.9639 254.642 68.6521 259.212 69.1754C261.438 69.4302 263.385 70.1767 265.055 71.4147C266.725 72.6527 267.968 74.2847 268.783 76.3105C269.598 78.3364 269.855 80.6607 269.554 83.2836L267.384 102.24L259.336 101.318L261.282 84.3292C261.591 81.6269 261.198 79.6091 260.103 78.2758C259.012 76.9028 257.473 76.1025 255.486 75.875C253.777 75.6793 252.196 76.1223 250.744 77.2041C249.336 78.2507 248.477 80.1252 248.167 82.8275L246.222 99.8165L238.175 98.895ZM287.111 105.284C283.932 104.92 281.175 103.859 278.84 102.102C276.504 100.345 274.76 98.1725 273.607 95.5845C272.498 92.9613 272.115 90.1595 272.456 87.179C272.797 84.1984 273.804 81.5559 275.477 79.2512C277.19 76.9512 279.383 75.2093 282.055 74.0256C284.727 72.8419 287.652 72.432 290.831 72.7961C294.05 73.1647 296.808 74.2253 299.103 75.9778C301.438 77.7349 303.16 79.925 304.269 82.5482C305.418 85.1759 305.821 87.98 305.48 90.9605C305.139 93.9411 304.112 96.5814 302.399 98.8814C300.73 101.146 298.56 102.871 295.888 104.054C293.256 105.243 290.33 105.652 287.111 105.284ZM287.951 97.9517C289.66 98.1474 291.195 97.9206 292.558 97.2714C293.925 96.5825 295.024 95.6012 295.855 94.3273C296.725 93.0581 297.251 91.6286 297.433 90.039C297.619 88.4097 297.432 86.8785 296.872 85.4454C296.351 84.0169 295.5 82.8324 294.319 81.8919C293.143 80.9118 291.701 80.3239 289.992 80.1282C288.283 79.9325 286.745 80.1791 285.378 80.8681C284.015 81.5172 282.899 82.4765 282.029 83.7457C281.198 85.0195 280.69 86.4711 280.503 88.1005C280.321 89.6901 280.491 91.1991 281.012 92.6277C281.572 94.0608 282.44 95.2674 283.617 96.2475C284.797 97.188 286.242 97.756 287.951 97.9517ZM322.214 109.303C319.035 108.939 316.277 107.879 313.942 106.122C311.607 104.365 309.863 102.192 308.71 99.6041C307.601 96.9809 307.217 94.1791 307.558 91.1985C307.9 88.218 308.907 85.5754 310.58 83.2708C312.293 80.9707 314.485 79.2289 317.157 78.0452C319.829 76.8615 322.755 76.4516 325.934 76.8157C329.153 77.1843 331.91 78.2449 334.206 79.9974C336.541 81.7545 338.263 83.9446 339.372 86.5678C340.52 89.1955 340.924 91.9996 340.583 94.9801C340.241 97.9607 339.214 100.601 337.502 102.901C335.833 105.166 333.663 106.89 330.991 108.074C328.359 109.262 325.433 109.672 322.214 109.303ZM323.054 101.971C324.762 102.167 326.298 101.94 327.661 101.291C329.028 100.602 330.127 99.6207 330.957 98.3469C331.827 97.0777 332.353 95.6482 332.535 94.0586C332.722 92.4293 332.535 90.8981 331.974 89.465C331.453 88.0364 330.603 86.852 329.422 85.9115C328.246 84.9314 326.803 84.3435 325.094 84.1478C323.386 83.9521 321.848 84.1987 320.48 84.8876C319.118 85.5368 318.001 86.4961 317.131 87.7653C316.301 89.0391 315.792 90.4907 315.606 92.1201C315.424 93.7097 315.593 95.2187 316.114 96.6473C316.675 98.0803 317.543 99.287 318.719 100.267C319.9 101.208 321.345 101.776 323.054 101.971ZM342.376 110.827L347.359 67.3115L355.407 68.233L350.424 111.749L342.376 110.827Z" fill="#FFFCFC"/>
<path d="M140.273 241.975L134.63 200.355L140.932 199.501L164.471 220.832C165.022 221.322 165.556 221.835 166.073 222.37C166.623 222.861 167.157 223.374 167.674 223.909C167.437 223.053 167.218 222.033 167.017 220.85C166.811 219.626 166.624 218.4 166.457 217.172L163.644 196.421L171.254 195.39L176.897 237.009L171.487 237.742L147.046 215.565C146.495 215.075 145.944 214.584 145.393 214.094C144.876 213.558 144.36 213.023 143.843 212.487C144.08 213.343 144.302 214.383 144.508 215.606C144.709 216.79 144.893 217.996 145.059 219.225L148.002 240.927L140.273 241.975ZM197.147 235.05C193.976 235.48 191.082 235.126 188.466 233.987C185.849 232.848 183.703 231.161 182.027 228.926C180.386 226.646 179.364 224.02 178.961 221.047C178.558 218.074 178.883 215.265 179.937 212.619C180.986 209.934 182.6 207.697 184.779 205.908C186.998 204.113 189.654 203.006 192.746 202.587C195.837 202.168 198.652 202.533 201.189 203.683C203.766 204.827 205.878 206.559 207.525 208.879C209.206 211.153 210.248 213.777 210.651 216.75C210.71 217.186 210.752 217.645 210.777 218.126C210.802 218.607 210.809 219.11 210.8 219.636L187.672 222.772C188.355 224.536 189.428 225.904 190.892 226.877C192.396 227.843 194.158 228.19 196.18 227.916C197.924 227.679 199.376 227.078 200.537 226.114C201.738 225.144 202.614 224.016 203.166 222.73L210.046 226.58C209.081 228.689 207.452 230.525 205.162 232.087C202.871 233.649 200.199 234.636 197.147 235.05ZM193.562 209.5C191.659 209.758 190.112 210.553 188.92 211.886C187.728 213.218 187.041 214.845 186.857 216.767L202.138 214.695C201.47 213.05 200.36 211.707 198.806 210.666C197.292 209.62 195.544 209.232 193.562 209.5ZM215.707 197.658C214.36 197.84 213.148 197.54 212.073 196.758C211.033 195.93 210.424 194.862 210.246 193.554C210.075 192.286 210.383 191.134 211.171 190.099C211.993 189.018 213.078 188.387 214.426 188.204C215.813 188.016 217.027 188.336 218.067 189.163C219.103 189.951 219.706 190.98 219.878 192.248C220.061 193.596 219.758 194.787 218.97 195.822C218.182 196.858 217.095 197.469 215.707 197.658ZM216.262 231.671L212.07 200.754L220.097 199.666L224.289 230.583L216.262 231.671ZM245.796 240.564C242.664 240.989 239.811 240.931 237.235 240.393C234.704 239.888 232.36 238.672 230.201 236.745L234.397 230.181C236.09 231.647 237.769 232.57 239.435 232.95C241.101 233.329 242.905 233.387 244.847 233.124C246.274 232.93 247.554 232.394 248.686 231.514C249.818 230.634 250.652 229.491 251.188 228.086C251.769 226.716 251.95 225.218 251.729 223.593L251.544 222.225C250.905 223.765 249.911 225.071 248.563 226.141C247.254 227.207 245.351 227.909 242.854 228.248C240.04 228.629 237.387 228.262 234.894 227.147C232.441 226.026 230.4 224.366 228.769 222.165C227.133 219.924 226.114 217.318 225.711 214.345C225.308 211.372 225.596 208.588 226.576 205.993C227.557 203.398 229.082 201.253 231.154 199.559C233.259 197.821 235.719 196.761 238.533 196.379C241.11 196.03 243.173 196.214 244.724 196.932C246.314 197.645 247.627 198.698 248.664 200.092L248.091 195.87L255.999 194.798L259.82 222.98C260.25 226.151 259.927 228.98 258.852 231.467C257.816 233.949 256.172 235.968 253.921 237.525C251.675 239.121 248.967 240.134 245.796 240.564ZM243.171 220.757C245.826 220.397 247.775 219.285 249.015 217.422C250.256 215.558 250.713 213.417 250.385 210.999C250.057 208.581 249.047 206.64 247.355 205.174C245.662 203.708 243.488 203.155 240.833 203.515C238.217 203.87 236.288 204.979 235.047 206.842C233.846 208.701 233.409 210.839 233.737 213.256C233.947 214.802 234.457 216.186 235.269 217.408C236.12 218.625 237.214 219.546 238.55 220.173C239.886 220.799 241.427 220.994 243.171 220.757ZM264.919 225.074L259.034 181.671L267.06 180.583L269.334 197.35C270.547 193.794 273.433 191.708 277.991 191.09C280.211 190.789 282.282 191.033 284.206 191.821C286.129 192.61 287.735 193.886 289.024 195.649C290.312 197.412 291.134 199.601 291.489 202.217L294.052 221.124L286.026 222.212L283.728 205.267C283.363 202.572 282.485 200.713 281.095 199.691C279.7 198.628 278.011 198.232 276.029 198.5C274.325 198.732 272.902 199.55 271.76 200.956C270.653 202.317 270.282 204.346 270.648 207.041L272.945 223.986L264.919 225.074ZM316.419 218.879C313.644 219.255 311.412 219.013 309.721 218.152C308.069 217.286 306.709 216.037 305.64 214.406L306.326 219.46L298.537 220.516L292.652 177.113L300.679 176.025L303.016 193.267C303.628 191.529 304.62 190.063 305.992 188.867C307.364 187.672 309.378 186.895 312.034 186.535C314.174 186.244 316.215 186.412 318.157 187.036C320.132 187.616 321.916 188.565 323.508 189.883C325.094 191.162 326.418 192.738 327.479 194.613C328.535 196.447 329.214 198.475 329.515 200.694C329.918 203.667 329.592 206.476 328.538 209.122C327.518 211.722 325.958 213.912 323.858 215.69C321.753 217.429 319.273 218.492 316.419 218.879ZM314.128 211.802C315.832 211.571 317.262 210.953 318.417 209.949C319.613 208.939 320.476 207.712 321.006 206.268C321.532 204.784 321.69 203.269 321.48 201.723C321.26 200.098 320.701 198.66 319.805 197.409C318.909 196.158 317.753 195.225 316.338 194.609C314.956 193.949 313.413 193.734 311.709 193.965C309.965 194.202 308.495 194.825 307.3 195.835C306.105 196.845 305.242 198.072 304.711 199.516C304.181 200.96 304.025 202.495 304.246 204.12C304.461 205.706 305.016 207.124 305.913 208.375C306.809 209.626 307.967 210.579 309.388 211.234C310.804 211.849 312.383 212.039 314.128 211.802ZM350.269 214.289C347.098 214.719 344.165 214.37 341.469 213.242C338.773 212.114 336.547 210.438 334.792 208.213C333.072 205.944 332.01 203.323 331.607 200.35C331.204 197.377 331.529 194.568 332.584 191.922C333.677 189.271 335.373 187.043 337.672 185.238C339.97 183.433 342.705 182.315 345.876 181.885C349.086 181.45 352.02 181.799 354.676 182.933C357.372 184.061 359.58 185.759 361.301 188.029C363.061 190.293 364.143 192.911 364.546 195.884C364.949 198.857 364.603 201.669 363.51 204.32C362.45 206.926 360.771 209.131 358.473 210.936C356.214 212.736 353.48 213.854 350.269 214.289ZM349.277 206.976C350.982 206.745 352.415 206.147 353.575 205.182C354.731 204.178 355.554 202.956 356.045 201.517C356.576 200.073 356.734 198.558 356.519 196.972C356.299 195.347 355.74 193.909 354.844 192.658C353.988 191.402 352.871 190.463 351.496 189.842C350.114 189.182 348.571 188.967 346.867 189.199C345.163 189.43 343.733 190.047 342.577 191.052C341.416 192.016 340.57 193.221 340.04 194.665C339.549 196.104 339.413 197.637 339.634 199.262C339.849 200.847 340.384 202.268 341.241 203.524C342.137 204.775 343.276 205.731 344.657 206.391C346.033 207.012 347.573 207.207 349.277 206.976ZM370.186 210.801L365.994 179.884L373.783 178.828L374.581 184.714C374.795 182.425 375.617 180.598 377.047 179.233C378.471 177.829 380.542 177.024 383.258 176.817L384.282 184.368L383.153 184.521C380.854 184.833 379.011 185.829 377.624 187.511C376.238 189.192 375.719 191.321 376.068 193.898L378.213 209.713L370.186 210.801ZM400.151 207.526C394.958 208.23 390.433 207.007 386.575 203.856L391.316 198.188C393.919 200.418 396.509 201.359 399.086 201.01C400.473 200.822 401.483 200.382 402.116 199.691C402.783 198.954 403.055 198.13 402.931 197.219C402.856 196.664 402.653 196.207 402.321 195.848C402.03 195.484 401.444 195.18 400.563 194.936C399.722 194.687 398.465 194.494 396.791 194.358C393.925 194.06 391.751 193.507 390.269 192.699C388.787 191.891 387.745 190.902 387.142 189.732C386.539 188.562 386.149 187.324 385.972 186.016C385.607 183.32 386.314 180.944 388.093 178.886C389.907 176.783 392.618 175.487 396.225 174.998C398.722 174.66 400.913 174.746 402.799 175.257C404.685 175.768 406.56 176.947 408.425 178.793L403.203 184.043C402.289 182.956 401.321 182.219 400.3 181.833C399.318 181.441 398.312 181.315 397.282 181.455C396.172 181.605 395.27 181.949 394.576 182.488C393.922 183.02 393.659 183.762 393.788 184.714C393.858 185.229 394.166 185.712 394.711 186.163C395.251 186.574 396.465 186.894 398.353 187.122C401.468 187.467 403.887 188.047 405.613 188.863C407.333 189.639 408.576 190.62 409.342 191.808C410.109 192.996 410.597 194.363 410.806 195.909C411.064 197.811 410.76 199.588 409.894 201.239C409.068 202.885 407.802 204.268 406.097 205.387C404.432 206.501 402.45 207.214 400.151 207.526Z" fill="#FFFCFC"/>
<path d="M62.2677 352.843C59.1593 352.575 56.3181 351.768 53.7443 350.421C51.2103 349.079 49.033 347.325 47.2122 345.161C45.4314 343 44.0947 340.576 43.2023 337.889C42.3532 335.166 42.0575 332.31 42.3153 329.321C42.5732 326.332 43.3336 323.567 44.5966 321.027C45.8995 318.489 47.5933 316.307 49.6781 314.479C51.8027 312.655 54.2482 311.3 57.0145 310.415C59.7843 309.489 62.7832 309.166 66.0112 309.444C69.4385 309.74 72.3212 310.53 74.6594 311.816C77.0374 313.105 79.0667 314.946 80.7472 317.34L74.3857 321.97C72.1019 319.123 69.087 317.538 65.3409 317.215C62.6708 316.985 60.2845 317.421 58.1819 318.525C56.1191 319.632 54.4586 321.195 53.2004 323.214C51.9423 325.233 51.2032 327.518 50.9832 330.069C50.7632 332.619 51.1001 334.997 51.9939 337.202C52.8911 339.367 54.281 341.173 56.1636 342.621C58.0497 344.028 60.3676 344.85 63.1174 345.087C65.1498 345.263 66.9724 345.079 68.5851 344.535C70.1977 343.992 71.6802 343.096 73.0325 341.847L78.6813 347.574C76.9222 349.349 74.6526 350.76 71.8725 351.805C69.1357 352.813 65.9341 353.159 62.2677 352.843ZM94.5367 355.626C91.3485 355.351 88.5627 354.368 86.1792 352.677C83.7957 350.986 81.9915 348.863 80.7665 346.309C79.5848 343.717 79.1228 340.927 79.3807 337.938C79.6385 334.95 80.5714 332.28 82.1793 329.929C83.8271 327.582 85.9699 325.78 88.6078 324.522C91.2457 323.264 94.1587 322.772 97.3469 323.047C100.575 323.326 103.361 324.309 105.704 325.996C108.088 327.688 109.87 329.829 111.052 332.42C112.274 335.014 112.756 337.806 112.498 340.795C112.24 343.784 111.287 346.452 109.639 348.799C108.035 351.11 105.914 352.894 103.276 354.152C100.678 355.413 97.7647 355.905 94.5367 355.626ZM95.1709 348.274C96.8845 348.422 98.4133 348.152 99.7574 347.465C101.105 346.738 102.176 345.726 102.97 344.43C103.804 343.137 104.29 341.693 104.428 340.099C104.569 338.465 104.339 336.94 103.738 335.523C103.178 334.109 102.294 332.949 101.088 332.042C99.8846 331.095 98.4263 330.548 96.7126 330.4C94.999 330.252 93.4684 330.542 92.121 331.269C90.777 331.956 89.6879 332.946 88.8536 334.239C88.0593 335.535 87.5916 337.001 87.4507 338.635C87.3132 340.229 87.5247 341.732 88.0854 343.146C88.6858 344.563 89.5876 345.745 90.7907 346.691C91.9972 347.598 93.4573 348.126 95.1709 348.274ZM120.082 357.047L113.079 325.127L122.524 325.942L125.008 343.922C125.102 344.693 125.193 345.504 125.28 346.354C125.411 347.168 125.503 347.959 125.557 348.727C125.934 347.153 126.41 345.588 126.986 344.032L133.045 326.849L142.311 327.649L145.637 345.641C145.938 347.273 146.139 348.896 146.241 350.511C146.426 349.764 146.632 348.999 146.86 348.216C147.132 347.396 147.38 346.614 147.604 345.871L153.43 328.608L162.217 329.366L149.852 359.615L141.124 358.862L137.569 340.729C137.225 339.134 137 337.549 136.895 335.974C136.711 336.721 136.504 337.486 136.276 338.269C136.048 339.052 135.801 339.814 135.537 340.554L129.348 357.846L120.082 357.047ZM175.097 362.575C171.909 362.3 169.123 361.317 166.739 359.626C164.356 357.935 162.552 355.812 161.327 353.257C160.145 350.666 159.683 347.876 159.941 344.887C160.199 341.898 161.132 339.229 162.74 336.878C164.387 334.531 166.53 332.729 169.168 331.471C171.806 330.213 174.719 329.721 177.907 329.996C181.135 330.275 183.921 331.258 186.265 332.945C188.648 334.637 190.431 336.778 191.612 339.369C192.834 341.963 193.316 344.755 193.058 347.744C192.8 350.733 191.847 353.401 190.2 355.748C188.595 358.059 186.474 359.843 183.836 361.101C181.238 362.362 178.325 362.854 175.097 362.575ZM175.731 355.223C177.445 355.37 178.974 355.101 180.318 354.414C181.665 353.687 182.736 352.675 183.53 351.379C184.365 350.086 184.85 348.642 184.988 347.048C185.129 345.414 184.899 343.889 184.299 342.472C183.738 341.058 182.854 339.898 181.648 338.991C180.445 338.044 178.986 337.497 177.273 337.349C175.559 337.201 174.029 337.491 172.681 338.218C171.337 338.905 170.248 339.895 169.414 341.188C168.62 342.484 168.152 343.95 168.011 345.584C167.873 347.178 168.085 348.681 168.646 350.095C169.246 351.512 170.148 352.693 171.351 353.64C172.557 354.547 174.017 355.075 175.731 355.223ZM195.294 363.535L197.975 332.45L205.806 333.125L205.296 339.044C206.006 336.856 207.209 335.254 208.902 334.236C210.6 333.178 212.796 332.845 215.493 333.238L214.838 340.83L213.702 340.732C211.39 340.533 209.374 341.102 207.653 342.439C205.932 343.776 204.959 345.739 204.736 348.33L203.364 364.231L195.294 363.535ZM215.434 365.272L219.198 321.634L227.268 322.33L225.103 347.437L237.842 335.889L249.32 336.879L233.426 350.082L246.698 367.969L235.998 367.046L224.778 351.203L223.504 365.968L215.434 365.272ZM259.674 369.871C256.486 369.596 253.74 368.616 251.436 366.932C249.132 365.248 247.408 363.132 246.262 360.584C245.16 358 244.738 355.213 244.996 352.224C245.254 349.235 246.187 346.565 247.795 344.215C249.406 341.825 251.471 339.995 253.989 338.727C256.548 337.462 259.381 336.964 262.489 337.232C265.598 337.5 268.264 338.473 270.488 340.15C272.752 341.831 274.433 343.983 275.532 346.607C276.674 349.195 277.116 351.983 276.858 354.972C276.82 355.411 276.761 355.867 276.679 356.342C276.598 356.817 276.496 357.31 276.371 357.821L253.118 355.815C253.398 357.686 254.146 359.256 255.361 360.526C256.616 361.798 258.26 362.522 260.293 362.697C262.046 362.849 263.595 362.581 264.939 361.894C266.323 361.21 267.425 360.301 268.245 359.168L274.115 364.432C272.711 366.278 270.72 367.712 268.143 368.734C265.566 369.757 262.743 370.135 259.674 369.871ZM261.772 344.156C259.859 343.991 258.175 344.428 256.72 345.467C255.266 346.505 254.238 347.942 253.638 349.778L269.001 351.103C268.711 349.351 267.921 347.798 266.633 346.442C265.385 345.09 263.764 344.328 261.772 344.156ZM279.065 370.76L281.746 339.676L289.577 340.351L289.067 346.269C289.777 344.082 290.98 342.48 292.673 341.462C294.371 340.404 296.567 340.071 299.263 340.464L298.609 348.056L297.473 347.958C295.161 347.759 293.145 348.328 291.424 349.665C289.703 351.002 288.73 352.965 288.507 355.556L287.135 371.457L279.065 370.76ZM309.02 374.127C303.799 373.677 299.652 371.492 296.577 367.574L302.445 363.081C304.496 365.828 306.817 367.313 309.408 367.536C310.802 367.656 311.884 367.449 312.653 366.913C313.465 366.34 313.911 365.596 313.99 364.679C314.038 364.121 313.94 363.631 313.695 363.209C313.491 362.789 312.985 362.364 312.179 361.934C311.413 361.506 310.229 361.043 308.626 360.543C305.894 359.625 303.894 358.609 302.625 357.496C301.356 356.383 300.556 355.19 300.224 353.917C299.892 352.643 299.783 351.349 299.897 350.034C300.13 347.324 301.341 345.16 303.528 343.542C305.758 341.888 308.687 341.217 312.313 341.53C314.824 341.746 316.943 342.31 318.671 343.222C320.399 344.134 321.971 345.695 323.386 347.905L317.141 351.883C316.487 350.622 315.704 349.691 314.793 349.091C313.921 348.494 312.967 348.15 311.931 348.061C310.815 347.965 309.859 348.103 309.064 348.476C308.309 348.853 307.89 349.519 307.808 350.476C307.763 350.994 307.958 351.532 308.391 352.092C308.828 352.611 309.943 353.189 311.735 353.825C314.698 354.844 316.932 355.94 318.437 357.114C319.945 358.247 320.943 359.478 321.431 360.804C321.918 362.131 322.095 363.572 321.961 365.126C321.796 367.039 321.11 368.706 319.904 370.128C318.737 371.553 317.199 372.625 315.29 373.343C313.421 374.065 311.331 374.327 309.02 374.127Z" fill="#FFFCFC"/>
</svg>
